<svg xmlns="http://www.w3.org/2000/svg" width="16" height="16"><path fill="#8da5f3" d="M3.63 2 2.1 4.67l1.52 2.66h3.04l1.52-2.66L6.66 2Zm5.71 2L7.63 1a.66.66 0 0 0-.58-.33H3.24a.66.66 0 0 0-.58.33L.76 4.34a.66.66 0 0 0 0 .66l1.7 3-1.7 3a.66.66 0 0 0 0 .66L2.65 15c.12.2.34.33.58.33h3.8c.25 0 .47-.12.58-.33l1.72-3h3.42c.24 0 .46-.13.58-.34l1.9-3.33a.67.67 0 0 0 0-.66l-1.9-3.33a.67.67 0 0 0-.58-.34Zm0 6.67L7.82 8l1.52-2.67h3.04L13.9 8l-1.53 2.67Zm-1.16.66L6.66 8.67H3.62L2.1 11.33 3.62 14h3.04Zm0 0" style="stroke:none;fill-rule:evenodd;fill-opacity:1"/></svg>